** A.Haunted.House.2013.480p.BRRiP.x264.AC3.CrEwSaDe **

******************************************************************************************************

Encoder: Muckfe
Video Codec: V_MPEG4/ISO/AVC
Video Bitrate: 1,400 kbps
Audio Codec: A_AC3
Audio Bitrate: 384 kbps
Resolution: 720 x 304 pixels
Runtime: 1h 26mn
Release Date: 11 January 2013 (USA)
Language: English
Subtitles: No
IMDB Rating: 4.9/10
IMDb URL: http://www.imdb.com/title/tt2243537/
GENRE: Comedy | Horror

_______________________________________________________________________________ General


Complete name: E:projectsA.Haunted.House.2013.480p.BRRiP.x264.AC3.CrEwSaDeA.Haunted.House.2013.480p.BRRiP.x264.AC3.CrEwSaDe..mkv
Format: Matroska
Format version: Version 2
File size: 1.08 GiB
Duration: 1h 26mn
Overall bit rate: 1 784 Kbps
Encoded date: UTC 2013-04-14 01:21:47
Writing application: mkvmerge v6.1.0 ('Old Devil') built on Mar 2 2013 14:32:37
Writing library: libebml v1.3.0 + libmatroska v1.4.0

________________________________________________________________________________ Video

ID: 1
Format: AVC
Format/Info: Advanced Video Codec
Format profile: High@L3.0
Format settings, CABAC: Yes
Format settings, ReFrames: 4 frames
Codec ID: V_MPEG4/ISO/AVC
Duration: 1h 26mn
Bit rate: 1 400 Kbps
Width: 720 pixels
Height: 384 pixels
Display aspect ratio: 1.85:1
Frame rate mode: Constant
Frame rate: 23.976 fps
Color space: YUV
Chroma subsampling: 4:2:0
Bit depth: 8 bits
Scan type: Progressive
Bits/(Pixel*Frame): 0.211
Stream size: 844 MiB (76%)
Writing library: x264 core 130 r2273 b3065e6
Encoding settings: cabac=1 / ref=3 / deblock=1:-1:-1 / analyse=0x3:0x133 / me=umh / subme=6 / psy=1 / psy_rd=1.00:0.15 / mixed_ref=1 / me_range=16 / chroma_me=1 / trellis=2 / 8x8dct=1 / cqm=0 / deadzone=21,11 / fast_pskip=1 / chroma_qp_offset=-3 / threads=6 / lookahead_threads=1 / sliced_threads=0 / nr=0 / decimate=1 / interlaced=0 / bluray_compat=0 / constrained_intra=0 / bframes=3 / b_pyramid=2 / b_adapt=2 / b_bias=0 / direct=3 / weightb=1 / open_gop=0 / weightp=2 / keyint=240 / keyint_min=23 / scenecut=40 / intra_refresh=0 / rc_lookahead=40 / rc=2pass / mbtree=1 / bitrate=1400 / ratetol=1.0 / qcomp=0.60 / qpmin=10 / qpmax=51 / qpstep=4 / cplxblur=20.0 / qblur=0.5 / ip_ratio=1.40 / aq=1:1.00
Default: Yes
Forced: No
_________________________________________________________________________________ Audio

ID: 2
Format: AC-3
Format/Info: Audio Coding 3
Mode extension: CM (complete main)
Format settings, Endianness: Big
Codec ID: A_AC3
Duration: 1h 26mn
Bit rate mode: Constant
Bit rate: 384 Kbps
Channel(s): 6 channels
Channel positions: Front: L C R, Side: L R, LFE
Sampling rate: 48.0 KHz
Bit depth: 16 bits
Compression mode: Lossy
Stream size: 237 MiB (22%)
Language: English
Default: Yes
Forced: No
_________________________________________________________________________________ SOURCES: VIDEO: SPARKS Thanks AUDIO: SPARKS Thanks
_________________________________________________________________________________ Plot:

Malcolm and Kisha move into their dream home, but soon learn a demon also resides there. When Kisha becomes possessed, Malcolm - determined to keep his sex life on track - turns to a priest, a psychic, and a team of ghost-busters for help
_________________________________________________________________________________ Cast

Marlon Wayans as Malcolm Johnson
Essence Atkins as Keisha
Cedric the Entertainer as Father Doug Williams
Nick Swardson as Chip the psychic
David Koechner as Dan the security man
Dave Sheridan as Bob, Dan's associate
Marlene Forte as Rosa
Alanna Ubach as Jenny
Andrew Daly as Steve
Affion Crockett as Ray-Ray
Robin Thede and J.B.as Keisha's mother and father